<svg xmlns="http://www.w3.org/2000/svg" width="3271.45996" height="3094" viewBox="0 0 3271.45996 3094">
  <defs>
    <style>
      .a0b382d5-1aeb-47d8-b622-582fa89c791a, .a1dd23b1-afaf-49a0-a575-ad102a80448e, .a90c5267-ec1c-48f9-99a1-f852c0e98a1c, .b87b460a-8afb-4ee9-b9b7-f593ec3420a6, .e3f4ea3c-19ed-4dd2-914e-d0314484e823 {
        fill: none;
      }

      .a0b382d5-1aeb-47d8-b622-582fa89c791a, .a90c5267-ec1c-48f9-99a1-f852c0e98a1c, .b87b460a-8afb-4ee9-b9b7-f593ec3420a6 {
        stroke: #fff;
      }

      .a0b382d5-1aeb-47d8-b622-582fa89c791a, .a1dd23b1-afaf-49a0-a575-ad102a80448e, .a90c5267-ec1c-48f9-99a1-f852c0e98a1c, .b87b460a-8afb-4ee9-b9b7-f593ec3420a6, .e349ca9c-3b71-4d2f-852b-ddb238320aca, .e3f4ea3c-19ed-4dd2-914e-d0314484e823 {
        stroke-miterlimit: 10;
      }

      .a90c5267-ec1c-48f9-99a1-f852c0e98a1c {
        opacity: 0.3;
      }

      .e3f4ea3c-19ed-4dd2-914e-d0314484e823 {
        stroke: #0fb5ef;
      }

      .e349ca9c-3b71-4d2f-852b-ddb238320aca, .e3f4ea3c-19ed-4dd2-914e-d0314484e823 {
        stroke-width: 2px;
      }

      .e349ca9c-3b71-4d2f-852b-ddb238320aca {
        fill: #56544c;
        stroke: #f2d025;
      }

      .a0b382d5-1aeb-47d8-b622-582fa89c791a {
        stroke-dasharray: 11.95046 11.95046;
      }

      .b0d0414d-9b85-48a4-b990-8d421e7d509d {
        fill: #d1d1d1;
      }

      .e73fb77b-9227-4b28-a102-001f2192b2b2 {
        fill: #0fb5ef;
      }

      .fd3b095c-daea-41f3-bf84-432e9487fbb7 {
        fill: #f40064;
      }

      .a11d9638-80e8-4899-8ed1-dabf046197e3 {
        fill: #f2d025;
      }

      .a1dd23b1-afaf-49a0-a575-ad102a80448e {
        stroke: #f40064;
        stroke-width: 4px;
      }
    </style>
  </defs>
  <title>Asset 120</title>
  <g id="b6f9c1ff-f45d-4fe0-a6e1-05f004088114" data-name="Layer 2">
    <g id="aa50e295-16a1-4f65-97ca-6e08a13b9e02" data-name="Layer 1">
      <g>
        <rect class="b87b460a-8afb-4ee9-b9b7-f593ec3420a6" x="724.45996" y="0.5" width="790" height="312"/>
        <rect class="a90c5267-ec1c-48f9-99a1-f852c0e98a1c" x="808.45996" y="503.55505" width="160" height="253.94495" rx="26.20525"/>
        <rect class="b87b460a-8afb-4ee9-b9b7-f593ec3420a6" x="724.45996" y="2781.5" width="790" height="312"/>
        <rect class="e3f4ea3c-19ed-4dd2-914e-d0314484e823" x="724.45996" y="312.5" width="790" height="2468"/>
        <rect class="e349ca9c-3b71-4d2f-852b-ddb238320aca" x="1682.37695" y="-643" width="635" height="2546" transform="translate(1367.45996 2629.87695) rotate(-90)"/>
        <g>
          <path class="b87b460a-8afb-4ee9-b9b7-f593ec3420a6" d="M3272.96875,947q0,3.00119-.00928,6.00018" transform="translate(-2.41699)"/>
          <path class="a0b382d5-1aeb-47d8-b622-582fa89c791a" d="M3272.88623,964.95105C3263.6958,1965.17786,2487.24951,2773.84937,1528.35254,2780.532" transform="translate(-2.41699)"/>
          <path class="b87b460a-8afb-4ee9-b9b7-f593ec3420a6" d="M1522.377,2780.56323q-2.99853.01062-6,.0105" transform="translate(-2.41699)"/>
        </g>
        <g>
          <path class="b0d0414d-9b85-48a4-b990-8d421e7d509d" d="M1025.293,134.12061v5.61474h-5.0459v36.17774h5.0459v5.47265H1007.666v-5.11719l6.75293-.35546v-15.9209H981.084v15.9209l6.68164.35546v5.11719H970.21v-5.47265h5.0459V139.73535H970.21v-5.61474h17.55566v5.25976l-6.68164.355v14.35742h33.335V139.73535l-6.75293-.355v-5.25976Z" transform="translate(-2.41699)"/>
          <path class="b0d0414d-9b85-48a4-b990-8d421e7d509d" d="M1066.582,170.79541l4.47754,2.13232c-2.84277,6.82325-9.80859,9.8794-17.05762,9.8794-11.44336,0-19.04883-7.46289-19.04883-18.835,0-11.72754,7.4629-19.19043,18.835-19.19043,10.59082,0,18.40918,6.89453,18.76367,17.12939l-.71,3.90918c-4.26465,0-25.44532-.14209-31.06055-.14209.78223,7.10742,5.89941,11.86963,13.14941,11.86963C1058.69238,177.54785,1064.165,175.771,1066.582,170.79541Zm-25.6582-9.52393h26.084c0-7.03662-5.68554-11.15918-13.21972-11.15918C1046.752,150.1123,1041.77637,154.44824,1040.92383,161.27148Z" transform="translate(-2.41699)"/>
          <path class="b0d0414d-9b85-48a4-b990-8d421e7d509d" d="M1099.12988,144.92383c5.96973,0,10.94532,2.417,13.93067,6.68115.1416-1.91894.28418-3.83789.35547-5.75684h10.51855V151.605H1118.96v24.09473h4.97461v5.686H1113.416l-.28418-5.40185c-2.91407,4.33593-7.74707,6.61035-13.36231,6.61035-9.87988,0-17.98242-7.10791-17.98242-18.76416C1081.78711,151.53418,1089.46289,144.92383,1099.12988,144.92383Zm1.63477,32.26855c6.32519,0,10.73242-3.55371,12.22461-8.95556a48.62171,48.62171,0,0,0,0-9.09766c-1.42188-5.18848-5.89942-8.67139-12.22461-8.67139-7.88965,0-13.00684,5.33106-13.00684,13.71778C1087.75781,172.07471,1092.94629,177.19238,1100.76465,177.19238Z" transform="translate(-2.41699)"/>
          <path class="b0d0414d-9b85-48a4-b990-8d421e7d509d" d="M1151.294,144.92383c5.96972,0,11.1582,2.48779,14.002,6.68115V139.87793c-1.63477-.21338-3.34082-.42676-4.97559-.71094v-5.04638H1171.124v41.5791h4.97461v5.686h-10.51855c0-1.70605-.14258-3.48291-.28418-5.47265-2.91406,4.40673-7.67676,6.68115-13.36231,6.68115-9.87988,0-17.98242-7.10791-17.98242-18.76416C1133.95117,151.53418,1141.627,144.92383,1151.294,144.92383Zm1.63476,32.26855c6.3252,0,10.73242-3.55371,12.22461-8.95556a48.62171,48.62171,0,0,0,0-9.09766c-1.42187-5.18848-5.89941-8.67139-12.22461-8.67139-7.88965,0-13.00683,5.33106-13.00683,13.71778C1139.92188,172.07471,1145.11035,177.19238,1152.92871,177.19238Z" transform="translate(-2.41699)"/>
          <path class="b0d0414d-9b85-48a4-b990-8d421e7d509d" d="M1216.67773,170.79541l4.47754,2.13232c-2.84277,6.82325-9.80859,9.8794-17.05761,9.8794-11.44336,0-19.04883-7.46289-19.04883-18.835,0-11.72754,7.46289-19.19043,18.835-19.19043,10.59082,0,18.40918,6.89453,18.76367,17.12939l-.71,3.90918c-4.26465,0-25.44531-.14209-31.06055-.14209.78223,7.10742,5.89942,11.86963,13.14942,11.86963C1208.78809,177.54785,1214.26074,175.771,1216.67773,170.79541Zm-25.6582-9.52393h26.084c0-7.03662-5.68555-11.15918-13.21973-11.15918C1196.84766,150.1123,1191.87207,154.44824,1191.01953,161.27148Z" transform="translate(-2.41699)"/>
          <path class="b0d0414d-9b85-48a4-b990-8d421e7d509d" d="M1260.10156,150.96533c-5.82812,0-17.627,3.625-17.627,12.2251v12.50928h4.97559v5.686h-15.77832v-5.686h4.9746V151.605h-4.9746v-5.75684h10.09277c.1416,2.84278.28418,5.686.35449,8.52881a23.194,23.194,0,0,1,17.98242-9.38183Z" transform="translate(-2.41699)"/>
        </g>
        <g>
          <path class="b0d0414d-9b85-48a4-b990-8d421e7d509d" d="M987.48145,2942.69922v5.68652h-17.2002v-5.68652h5.0459v-35.82129h-5.0459v-5.75684h50.74707v15.06739h-5.82812v-9.31055H981.15527v14.07324h25.7295v5.89844h-25.7295v15.84961Z" transform="translate(-2.41699)"/>
          <path class="b0d0414d-9b85-48a4-b990-8d421e7d509d" d="M1026.709,2930.97266c0-11.72852,7.4629-19.19141,18.76368-19.19141,11.44336,0,19.12011,7.53516,19.12011,18.83594,0,11.79883-7.53418,19.18945-18.90625,19.18945S1026.709,2942.34375,1026.709,2930.97266Zm18.76368-13.50489c-7.74707,0-12.86426,5.0459-12.86426,13.14942,0,8.17383,5.18848,13.57519,13.07812,13.57519,7.74707,0,12.93555-5.0459,12.93555-13.21972C1058.62207,2922.86914,1053.43359,2917.46777,1045.47266,2917.46777Z" transform="translate(-2.41699)"/>
          <path class="b0d0414d-9b85-48a4-b990-8d421e7d509d" d="M1074.18359,2930.97266c0-11.72852,7.46289-19.19141,18.76368-19.19141,11.44335,0,19.12011,7.53516,19.12011,18.83594,0,11.79883-7.53418,19.18945-18.90625,19.18945S1074.18359,2942.34375,1074.18359,2930.97266Zm18.76368-13.50489c-7.74707,0-12.86426,5.0459-12.86426,13.14942,0,8.17383,5.18847,13.57519,13.07812,13.57519,7.74707,0,12.93555-5.0459,12.93555-13.21972C1106.09668,2922.86914,1100.9082,2917.46777,1092.94727,2917.46777Z" transform="translate(-2.41699)"/>
          <path class="b0d0414d-9b85-48a4-b990-8d421e7d509d" d="M1125.28223,2912.84766v-11.72657h5.82812v11.72657h7.25v5.75781h-7.25v14.7832c0,7.03711,1.91895,9.52442,8.24512,9.52442h1.13672v5.68652c-.78125.07031-2.06055.1416-2.98535.1416-8.95508,0-12.22461-5.61523-12.22461-15.13965v-14.99609h-4.97559v-5.75781Z" transform="translate(-2.41699)"/>
          <path class="b0d0414d-9b85-48a4-b990-8d421e7d509d" d="M1179.79492,2937.79492l4.47754,2.13281c-2.84277,6.82325-9.80859,9.87891-17.05762,9.87891-11.44336,0-19.04882-7.46289-19.04882-18.834,0-11.72852,7.46289-19.19141,18.835-19.19141,10.59082,0,18.40918,6.89453,18.76367,17.12988l-.71,3.90918c-4.26465,0-25.44531-.14258-31.06055-.14258.78223,7.10743,5.89941,11.87012,13.14941,11.87012C1171.90527,2944.54785,1177.37793,2942.77148,1179.79492,2937.79492Zm-25.6582-9.52344h26.084c0-7.0371-5.68554-11.15918-13.21972-11.15918C1159.96484,2917.1123,1154.98926,2921.44824,1154.13672,2928.27148Z" transform="translate(-2.41699)"/>
          <path class="b0d0414d-9b85-48a4-b990-8d421e7d509d" d="M1223.21777,2917.96484c-5.82812,0-17.627,3.625-17.627,12.22559v12.50879h4.97559v5.68652h-15.77832v-5.68652h4.97461v-24.09375h-4.97461v-5.75781h10.09277c.1416,2.84375.28418,5.68652.35449,8.52929a23.19253,23.19253,0,0,1,17.98242-9.38183Z" transform="translate(-2.41699)"/>
        </g>
        <g>
          <path class="e73fb77b-9227-4b28-a102-001f2192b2b2" d="M65.81641,1672.12109v5.61426h-5.0459v36.17774h5.0459v5.47265h-17.627v-5.11719l6.75293-.35546v-15.9209h-33.335v15.9209l6.68164.35546v5.11719H10.7334v-5.47265h5.0459v-36.17774H10.7334v-5.61426H28.28906v5.25977l-6.68164.35449v14.35742h33.335v-14.35742l-6.75293-.35449v-5.25977Z" transform="translate(-2.41699)"/>
          <path class="e73fb77b-9227-4b28-a102-001f2192b2b2" d="M107.10547,1708.79492l4.47754,2.13281c-2.84278,6.82325-9.8086,9.87891-17.05762,9.87891-11.44336,0-19.04883-7.46289-19.04883-18.834,0-11.72852,7.46289-19.19141,18.835-19.19141,10.59082,0,18.40918,6.89453,18.76368,17.12988l-.71,3.90918c-4.26464,0-25.44531-.14258-31.06054-.14258.78222,7.10743,5.89941,11.87012,13.14941,11.87012C99.21582,1715.54785,104.68848,1713.77148,107.10547,1708.79492Zm-25.6582-9.52344h26.084c0-7.0371-5.68555-11.15918-13.21973-11.15918C87.27539,1688.1123,82.2998,1692.44824,81.44727,1699.27148Z" transform="translate(-2.41699)"/>
          <path class="e73fb77b-9227-4b28-a102-001f2192b2b2" d="M133.61133,1713.69922h4.97558v5.68652H122.80859v-5.68652h4.97461v-24.09375h-4.97461v-5.75781h10.80274Zm-7.3916-40.86719a4.14346,4.14346,0,0,1,4.33593-4.47851,4.23883,4.23883,0,0,1,4.40625,4.33593,4.37183,4.37183,0,0,1-8.74218.14258Z" transform="translate(-2.41699)"/>
          <path class="e73fb77b-9227-4b28-a102-001f2192b2b2" d="M150.45312,1727.3457c1.56446-.99414,2.98536-2.06054,4.54883-3.05566,2.2041,3.69629,7.03711,5.47266,11.65625,5.47266,9.31153,0,11.94141-4.97559,12.36719-16.20508-2.91406,4.335-7.81836,6.61035-13.50391,6.61035-9.80859,0-17.83984-6.89453-17.83984-18.33789,0-12.2959,7.60547-18.90625,17.34277-18.90625,5.96973,0,11.08692,2.48828,13.93067,6.68164.1416-1.91992.28418-3.83789.35547-5.75781H189.8291v5.75781h-4.97558v27.293c0,12.58008-6.39649,18.19531-18.26563,18.19531C160.04883,1735.09375,153.794,1732.96094,150.45312,1727.3457Zm15.99219-12.50879c5.75684,0,10.44824-3.05566,12.22559-8.38671a33.93507,33.93507,0,0,0,.1416-9.31153c-1.42188-5.1875-5.82812-8.6709-12.1543-8.6709-7.88867,0-13.00586,5.33106-13.00586,13.71778C153.65234,1710.00391,159.125,1714.83691,166.44531,1714.83691Z" transform="translate(-2.41699)"/>
          <path class="e73fb77b-9227-4b28-a102-001f2192b2b2" d="M209.08594,1691.45312c4.47754-6.39648,10.66113-8.38671,16.56054-8.38671,7.74707,0,13.85938,5.40136,13.85938,13.71679v16.916h4.833v5.68652h-15.707v-5.33105l4.97461-.35547V1697.707c0-5.61426-4.69043-9.02539-9.73731-9.02539-5.61426,0-11.51367,2.84277-14.7832,10.16309v14.85449l4.97558.35547v5.33105H198.28223v-5.68652h4.97558v-35.82129h-4.97558v-5.75684h10.80371Z" transform="translate(-2.41699)"/>
          <path class="e73fb77b-9227-4b28-a102-001f2192b2b2" d="M256.27441,1683.84766v-11.72657h5.82813v11.72657h7.25v5.75781h-7.25v14.7832c0,7.03711,1.91894,9.52442,8.24512,9.52442h1.13672v5.68652c-.78126.07031-2.06055.1416-2.98536.1416-8.95507,0-12.22461-5.61523-12.22461-15.13965v-14.99609h-4.97558v-5.75781Z" transform="translate(-2.41699)"/>
          <path class="e73fb77b-9227-4b28-a102-001f2192b2b2" d="M352.86035,1698.84473v5.54394H341.915v9.31055h6.041v5.68652H328.97949v-5.33105c2.34571-.1416,4.76172-.28321,7.10742-.35547v-9.31055H302.61035l-2.3457-4.61914c12.1543-10.23535,24.3789-20.6123,36.60449-30.84765,1.70508.498,3.33984,1.13769,5.0459,1.63476v28.28809Zm-16.77344,0v-22.03321l-25.94238,22.03321Z" transform="translate(-2.41699)"/>
          <path class="e73fb77b-9227-4b28-a102-001f2192b2b2" d="M363.51562,1695.93066c0-15.63574,9.95118-25.58691,25.01856-25.58691,15.13965,0,25.30371,10.09277,25.30371,25.08984,0,15.63672-10.02246,25.58692-25.08984,25.58692C373.6084,1721.02051,363.51562,1710.92773,363.51562,1695.93066Zm25.01856-19.97168c-11.51367,0-18.97656,7.4629-18.97656,19.47461s7.53418,19.97168,19.19043,19.97168c11.51367,0,19.04785-7.3916,19.04785-19.47461C407.7959,1683.919,400.19141,1675.959,388.53418,1675.959Z" transform="translate(-2.41699)"/>
          <path class="e73fb77b-9227-4b28-a102-001f2192b2b2" d="M427.19336,1695.93066c0-15.63574,9.95117-25.58691,25.01855-25.58691,15.13965,0,25.30371,10.09277,25.30371,25.08984,0,15.63672-10.02246,25.58692-25.08984,25.58692C437.28613,1721.02051,427.19336,1710.92773,427.19336,1695.93066Zm25.01855-19.97168c-11.51367,0-18.97656,7.4629-18.97656,19.47461s7.53418,19.97168,19.19043,19.97168c11.51367,0,19.04785-7.3916,19.04785-19.47461C471.47363,1683.919,463.86914,1675.959,452.21191,1675.959Z" transform="translate(-2.41699)"/>
          <path class="e73fb77b-9227-4b28-a102-001f2192b2b2" d="M498.4043,1677.87793c8.17382,16.84473,12.58105,25.87109,17.05859,34.96875h.56836c4.47754-9.09766,8.95508-18.124,17.12891-34.96875H526.835v-5.75684h18.124v5.75684h-5.40136c-6.89453,13.85937-13.71778,27.71973-20.61231,41.50781h-6.39648l-20.541-41.50781h-5.40136v-5.75684h18.05273v5.75684Z" transform="translate(-2.41699)"/>
          <path class="e73fb77b-9227-4b28-a102-001f2192b2b2" d="M608.707,1672.12109v5.61426h-5.0459v36.17774h5.0459v5.47265h-17.627v-5.11719l6.75293-.35546v-15.9209h-33.335v15.9209l6.68164.35546v5.11719H553.624v-5.47265h5.0459v-36.17774H553.624v-5.61426h17.55567v5.25977l-6.68164.35449v14.35742h33.335v-14.35742l-6.75293-.35449v-5.25977Z" transform="translate(-2.41699)"/>
          <path class="e73fb77b-9227-4b28-a102-001f2192b2b2" d="M104.5459,1754.13379h5.11816c0,5.61523.07032,9.38183.07032,14.92578h-5.47266c-.07031-1.77637-.28418-3.624-.35547-5.82812-1.13672-.78223-7.17773-4.335-16.916-4.335-7.17773,0-16.27539,2.20313-16.27539,9.09766,0,12.4375,41.08106-.42676,41.08106,19.332,0,12.72266-13.21973,16.56055-23.59668,16.56055a32.66764,32.66764,0,0,1-18.835-6.39649v4.61915H63.53613v-16.84376h5.25879l.64063,5.96973c3.05566,2.27442,9.8789,6.61035,18.19531,6.61035,6.96484,0,17.83984-1.99023,17.83984-10.09375,0-14.14355-41.50879.35547-41.50879-19.26074,0-11.79785,14.21582-15.06738,23.31348-15.06738,8.38672,0,14.00195,2.48633,16.77344,4.19336C104.19141,1756.47949,104.333,1755.3418,104.5459,1754.13379Z" transform="translate(-2.41699)"/>
          <path class="e73fb77b-9227-4b28-a102-001f2192b2b2" d="M157.918,1793.50977c-2.98438,6.46777-9.38184,10.02148-16.98633,10.02148-11.44336,0-19.4043-7.46289-19.4043-18.835,0-10.94531,7.17871-19.19043,18.33789-19.19043,7.10743,0,11.2295,3.34082,12.72266,5.40234l.85254-4.33593h4.12207v15.56543h-5.11719a24.05856,24.05856,0,0,0-.78125-5.18848,12.72332,12.72332,0,0,0-11.30176-5.89942c-7.32031,0-12.86425,4.9043-12.86425,13.291,0,8.17383,4.97558,13.5752,13.3623,13.5752,5.33008,0,10.09277-2.5586,12.083-6.60938C154.57812,1792.01758,156.2832,1792.72852,157.918,1793.50977Z" transform="translate(-2.41699)"/>
          <path class="e73fb77b-9227-4b28-a102-001f2192b2b2" d="M197.00488,1771.68945c-5.82812,0-17.627,3.625-17.627,12.22461v12.50977h4.97559v5.68555H168.5752v-5.68555h4.9746V1772.3291h-4.9746v-5.75683H178.668c.1416,2.84277.28418,5.68554.35449,8.52929a23.19375,23.19375,0,0,1,17.98242-9.38281Z" transform="translate(-2.41699)"/>
          <path class="e73fb77b-9227-4b28-a102-001f2192b2b2" d="M203.11328,1784.69629c0-11.72754,7.46289-19.19043,18.76367-19.19043,11.44336,0,19.12012,7.53418,19.12012,18.835,0,11.79883-7.53418,19.19043-18.90625,19.19043S203.11328,1796.06836,203.11328,1784.69629Zm18.76367-13.50488c-7.74707,0-12.86425,5.04687-12.86425,13.14941,0,8.17383,5.18847,13.5752,13.07812,13.5752,7.74707,0,12.93555-5.0459,12.93555-13.21973C235.02637,1776.59375,229.83789,1771.19141,221.877,1771.19141Z" transform="translate(-2.41699)"/>
          <path class="e73fb77b-9227-4b28-a102-001f2192b2b2" d="M260.042,1796.42383h4.97559v5.68555h-15.7793v-5.68555h4.97559v-35.82227h-4.97559v-5.75683H260.042Z" transform="translate(-2.41699)"/>
          <path class="e73fb77b-9227-4b28-a102-001f2192b2b2" d="M284.915,1796.42383h4.97558v5.68555H274.11133v-5.68555h4.97558v-35.82227h-4.97558v-5.75683H284.915Z" transform="translate(-2.41699)"/>
          <path class="e73fb77b-9227-4b28-a102-001f2192b2b2" d="M370.27148,1754.84473v11.08789h-5.8291v-5.33106H348.167v35.82227h6.041v5.68555H336.29688v-5.68555h6.041v-35.82227H326.0625v5.33106h-5.82812v-11.08789Z" transform="translate(-2.41699)"/>
          <path class="e73fb77b-9227-4b28-a102-001f2192b2b2" d="M406.0166,1771.68945c-5.82812,0-17.62695,3.625-17.62695,12.22461v12.50977h4.97558v5.68555H377.58691v-5.68555h4.97461V1772.3291h-4.97461v-5.75683h10.09278c.1416,2.84277.28418,5.68554.35449,8.52929a23.19374,23.19374,0,0,1,17.98242-9.38281Z" transform="translate(-2.41699)"/>
          <path class="e73fb77b-9227-4b28-a102-001f2192b2b2" d="M423.42578,1796.42383h4.97559v5.68555H412.62305v-5.68555h4.97461V1772.3291h-4.97461v-5.75683h10.80273Zm-7.3916-40.86817a4.14269,4.14269,0,0,1,4.33594-4.47754,4.23863,4.23863,0,0,1,4.40625,4.335,4.37182,4.37182,0,0,1-8.74219.14257Z" transform="translate(-2.41699)"/>
          <path class="e73fb77b-9227-4b28-a102-001f2192b2b2" d="M440.26758,1810.07031c1.56445-.99511,2.98535-2.06054,4.54883-3.05664,2.2041,3.69629,7.03711,5.47266,11.65625,5.47266,9.31152,0,11.9414-4.97461,12.36718-16.20508-2.91406,4.33594-7.81836,6.61035-13.5039,6.61035-9.8086,0-17.83985-6.89355-17.83985-18.33691,0-12.29688,7.60547-18.90625,17.34278-18.90625,5.96972,0,11.08691,2.4873,13.93066,6.68066.1416-1.91894.28418-3.83789.35547-5.75683h10.51855v5.75683H474.668v27.293c0,12.58105-6.39649,18.19531-18.26563,18.19531C449.86328,1817.81738,443.6084,1815.68555,440.26758,1810.07031Zm15.99219-12.50976c5.75683,0,10.44824-3.05567,12.22558-8.38672a33.928,33.928,0,0,0,.1416-9.31055c-1.42187-5.18848-5.82812-8.67187-12.15429-8.67187-7.88868,0-13.00586,5.33105-13.00586,13.71875C443.4668,1792.72852,448.93945,1797.56055,456.25977,1797.56055Z" transform="translate(-2.41699)"/>
          <path class="e73fb77b-9227-4b28-a102-001f2192b2b2" d="M490.86914,1810.07031c1.56445-.99511,2.98535-2.06054,4.54883-3.05664,2.2041,3.69629,7.03711,5.47266,11.65625,5.47266,9.31152,0,11.9414-4.97461,12.36719-16.20508-2.91407,4.33594-7.81836,6.61035-13.50391,6.61035-9.80859,0-17.83984-6.89355-17.83984-18.33691,0-12.29688,7.60546-18.90625,17.34277-18.90625,5.96973,0,11.08691,2.4873,13.93066,6.68066.14161-1.91894.28418-3.83789.35547-5.75683h10.51856v5.75683h-4.97559v27.293c0,12.58105-6.39648,18.19531-18.26562,18.19531C500.46484,1817.81738,494.21,1815.68555,490.86914,1810.07031Zm15.99219-12.50976c5.75683,0,10.44824-3.05567,12.22558-8.38672a33.92794,33.92794,0,0,0,.14161-9.31055c-1.42188-5.18848-5.82813-8.67187-12.1543-8.67187-7.88867,0-13.00586,5.33105-13.00586,13.71875C494.06836,1792.72852,499.541,1797.56055,506.86133,1797.56055Z" transform="translate(-2.41699)"/>
          <path class="e73fb77b-9227-4b28-a102-001f2192b2b2" d="M570.25684,1791.51953l4.47754,2.13281c-2.84278,6.82227-9.8086,9.87891-17.0586,9.87891-11.44238,0-19.04785-7.46289-19.04785-18.835,0-11.72754,7.46289-19.19043,18.835-19.19043,10.59082,0,18.4082,6.89453,18.76367,17.12891l-.71,3.91015c-4.26465,0-25.44531-.14258-31.06055-.14258.78223,7.10743,5.89942,11.86914,13.14942,11.86914C562.36719,1798.27148,567.83984,1796.49512,570.25684,1791.51953Zm-25.65821-9.52344h26.084c0-7.03711-5.68555-11.15918-13.21973-11.15918C550.42676,1770.83691,545.45117,1775.17188,544.59863,1781.99609Z" transform="translate(-2.41699)"/>
          <path class="e73fb77b-9227-4b28-a102-001f2192b2b2" d="M613.67969,1771.68945c-5.82813,0-17.627,3.625-17.627,12.22461v12.50977h4.97559v5.68555H585.25v-5.68555h4.97461V1772.3291H585.25v-5.75683h10.09277c.14161,2.84277.28418,5.68554.3545,8.52929a23.19372,23.19372,0,0,1,17.98242-9.38281Z" transform="translate(-2.41699)"/>
        </g>
        <g>
          <path class="fd3b095c-daea-41f3-bf84-432e9487fbb7" d="M14.21484,653.87793c8.17383,16.84473,12.58106,25.87109,17.0586,34.96875h.56836c4.47754-9.09766,8.95508-18.124,17.1289-34.96875H42.64551v-5.75732h18.124v5.75732H55.36816c-6.89453,13.85937-13.71777,27.71924-20.6123,41.50781H28.35938l-20.541-41.50781H2.417v-5.75732H20.46973v5.75732Z" transform="translate(-2.41699)"/>
          <path class="fd3b095c-daea-41f3-bf84-432e9487fbb7" d="M78.60352,689.69971H83.5791v5.686H67.80078v-5.686h4.97461V665.605H67.80078v-5.75684H78.60352Zm-7.39161-40.86817a4.14333,4.14333,0,0,1,4.33594-4.478A4.239,4.239,0,0,1,79.9541,648.689a4.37183,4.37183,0,0,1-8.74219.14258Z" transform="translate(-2.41699)"/>
          <path class="fd3b095c-daea-41f3-bf84-432e9487fbb7" d="M124.23145,684.79541l4.47753,2.13232c-2.84277,6.82325-9.80859,9.8794-17.05859,9.8794-11.44238,0-19.04785-7.46289-19.04785-18.835,0-11.72754,7.46289-19.19043,18.835-19.19043,10.59082,0,18.4082,6.89453,18.76367,17.12939l-.71,3.90918c-4.26465,0-25.44531-.14209-31.06055-.14209.78223,7.10742,5.89942,11.86963,13.14942,11.86963C116.3418,691.54785,121.81445,689.771,124.23145,684.79541Zm-25.65821-9.52393h26.084c0-7.03662-5.68555-11.15918-13.21973-11.15918C104.40137,664.1123,99.42578,668.44824,98.57324,675.27148Z" transform="translate(-2.41699)"/>
          <path class="fd3b095c-daea-41f3-bf84-432e9487fbb7" d="M184.85449,689.69971h.49805L194.5918,665.605c-2.5586-.14209-5.11719-.28418-7.67578-.355v-5.40186h18.76367V665.605H200.5625L188.124,695.38574h-6.39648l-11.15918-27.57715-11.22949,27.57715h-6.39746L140.50391,665.605H135.457v-5.75684H154.2207V665.25c-2.55859.0708-5.11718.21289-7.67578.355l9.16895,24.09473h.49707c3.83789-9.95069,7.60547-19.90088,11.37207-29.85157h5.89941C177.32031,669.79883,181.08789,679.749,184.85449,689.69971Z" transform="translate(-2.41699)"/>
          <path class="fd3b095c-daea-41f3-bf84-432e9487fbb7" d="M227.28027,704.62549v5.75732H211.502v-5.75732h4.97559V665.605H211.502v-5.75684H221.9502l.35546,5.686c2.84278-4.33594,7.81836-6.46777,14.002-6.46777,9.45215,0,17.2705,6.39648,17.2705,18.55029,0,11.94092-8.03124,18.97754-17.83984,18.97754-5.82812,0-10.58984-2.3457-13.43262-6.68115v14.7124Zm7.25-40.15772c-6.32617,0-10.51953,3.41162-12.01172,8.67139a50.16322,50.16322,0,0,0,0,9.23975c1.56348,5.25976,5.82813,8.81347,12.1543,8.81347,7.81738,0,13.00684-5.04638,13.00684-13.22021C247.67969,669.86963,242.41992,664.46777,234.53027,664.46777Z" transform="translate(-2.41699)"/>
          <path class="fd3b095c-daea-41f3-bf84-432e9487fbb7" d="M263.30957,677.97217c0-11.72754,7.46289-19.19043,18.76367-19.19043,11.44336,0,19.12012,7.53418,19.12012,18.835,0,11.79883-7.53418,19.19043-18.90625,19.19043S263.30957,689.34424,263.30957,677.97217Zm18.76367-13.5044c-7.74707,0-12.86426,5.04639-12.86426,13.14893,0,8.17383,5.18848,13.57568,13.07813,13.57568,7.74707,0,12.93555-5.04638,12.93555-13.22021C295.22266,669.86963,290.03418,664.46777,282.07324,664.46777Z" transform="translate(-2.41699)"/>
          <path class="fd3b095c-daea-41f3-bf84-432e9487fbb7" d="M339.001,664.96533c-5.82813,0-17.627,3.625-17.627,12.2251v12.50928h4.97559v5.686H310.57129v-5.686h4.97461V665.605h-4.97461v-5.75684h10.09277c.1416,2.84278.28418,5.686.35449,8.52881a23.194,23.194,0,0,1,17.98243-9.38183Z" transform="translate(-2.41699)"/>
          <path class="fd3b095c-daea-41f3-bf84-432e9487fbb7" d="M348.73438,659.84814V648.12061h5.82812v11.72753h7.25V665.605h-7.25v14.78369c0,7.03662,1.91895,9.52442,8.24512,9.52442h1.13672v5.686c-.78125.0708-2.06153.14209-2.98536.14209-8.95507,0-12.2246-5.61523-12.2246-15.13916V665.605h-4.97559v-5.75684Z" transform="translate(-2.41699)"/>
          <path class="fd3b095c-daea-41f3-bf84-432e9487fbb7" d="M408.14941,648.12061q9.80861,18.657,19.47461,37.31445l19.47461-37.31445h12.36719v5.75732H454.419v35.82178h5.04687v5.686h-17.2002v-5.33056c2.13184-.14209,4.19336-.28418,6.3252-.35547V658.63965c-6.53906,12.2959-12.93555,24.521-19.47461,36.74609h-2.98535l-19.40332-36.74609v31.06006c2.13184.07129,4.19336.21338,6.32617.35547v5.33056H395.85352v-5.686h5.04589V653.87793h-5.04589v-5.75732Z" transform="translate(-2.41699)"/>
          <path class="fd3b095c-daea-41f3-bf84-432e9487fbb7" d="M486.53906,658.92383c5.96973,0,10.94532,2.417,13.93067,6.68115.1416-1.91894.28418-3.83789.35547-5.75684h10.51855V665.605h-4.97461v24.09473h4.97461v5.686H500.8252l-.28418-5.40185c-2.91407,4.33593-7.748,6.61035-13.36231,6.61035-9.87988,0-17.98242-7.10791-17.98242-18.76416C469.19629,665.53418,476.87305,658.92383,486.53906,658.92383Zm1.63477,32.26855c6.32519,0,10.73242-3.55371,12.22461-8.95556a48.62171,48.62171,0,0,0,0-9.09766c-1.42188-5.18848-5.89942-8.67139-12.22461-8.67139-7.88965,0-13.00684,5.33106-13.00684,13.71778C475.167,686.07471,480.35547,691.19238,488.17383,691.19238Z" transform="translate(-2.41699)"/>
          <path class="fd3b095c-daea-41f3-bf84-432e9487fbb7" d="M556.25879,659.35059V671.3623h-4.47754l-.21387-3.12744c-1.4209-1.91894-6.39648-4.54882-12.93554-4.54882-4.33594,0-9.8086,2.13232-9.8086,5.61523,0,8.88428,29.63867.21289,29.63867,15.42334,0,7.81836-8.17382,12.01172-17.1289,12.01172-5.11817,0-10.377-1.63477-13.86035-4.69092v3.34033h-4.833V682.66309h4.40723l.42578,3.76709c1.99023,3.12744,8.3164,5.33056,13.86035,5.33056,6.53906,0,11.30078-2.34521,11.30078-6.752,0-9.73731-29.56738-.71094-29.56738-15.42334,0-8.10254,8.88476-10.80371,16.0625-10.80371,5.9707,0,10.16406,1.77685,12.50976,3.83838l.28418-3.26953Z" transform="translate(-2.41699)"/>
          <path class="fd3b095c-daea-41f3-bf84-432e9487fbb7" d="M578.6416,681.1709l20.46973-16.27637H591.293v-5.04639h19.11914V665.605h-4.76172l-10.66113,8.458c5.0459,10.59033,10.44824,16.063,14.499,16.063a9.39388,9.39388,0,0,0,2.77246-.42627l.21289,5.686a19.56164,19.56164,0,0,1-4.19336.56836c-5.89941,0-9.5957-4.61963-15.13965-14.42822l-2.4873-4.40674-12.01172,9.80859v2.772l4.62012.28418v5.40185H567.83789v-5.686h4.97559V653.87793h-4.97559v-5.75732H578.6416Z" transform="translate(-2.41699)"/>
          <path class="fd3b095c-daea-41f3-bf84-432e9487fbb7" d="M108.59863,766.37256l11.30078-32.19727-7.60449-.35547v-4.97509h20.11426v5.47265h-5.68652l-14.99707,41.79248h-4.76172q-6.07617-16.95117-12.083-33.97412L82.86914,776.10986H78.10742L63.11035,734.31738H57.4248v-5.47265h20.043l.21289,4.97509-7.81836.35547c3.8379,10.66162,7.53418,21.60694,11.37208,32.19727l10.73242-31.8418-5.89942-.71094v-4.97509h17.69824c0,1.91894.07129,3.05615.14258,4.97509l-6.11328.71094C101.34863,745.0498,104.97363,755.85352,108.59863,766.37256Z" transform="translate(-2.41699)"/>
          <path class="fd3b095c-daea-41f3-bf84-432e9487fbb7" d="M150.24121,770.42383h4.97559v5.686H139.43848v-5.686h4.97461V746.3291h-4.97461v-5.75683h10.80273Zm-7.3916-40.86817a4.14332,4.14332,0,0,1,4.33594-4.478,4.239,4.239,0,0,1,4.40625,4.33545,4.37183,4.37183,0,0,1-8.74219.14257Z" transform="translate(-2.41699)"/>
          <path class="fd3b095c-daea-41f3-bf84-432e9487fbb7" d="M181.584,739.648c5.96973,0,11.15821,2.48779,14.002,6.68115V734.60156c-1.63477-.21289-3.34082-.42627-4.97559-.71045v-5.04638h10.80371v41.5791h4.97461v5.686H195.87012c0-1.70556-.14258-3.48291-.28418-5.47265-2.91406,4.40674-7.67676,6.68115-13.36231,6.68115-9.87988,0-17.98242-7.10791-17.98242-18.76416C164.24121,746.2583,171.918,739.648,181.584,739.648Zm1.63477,32.26855c6.3252,0,10.73242-3.55371,12.22461-8.95556a48.6217,48.6217,0,0,0,0-9.09766c-1.42188-5.18848-5.89941-8.67139-12.22461-8.67139-7.88965,0-13.00684,5.33057-13.00684,13.71778C170.21191,766.79883,175.40039,771.9165,183.21875,771.9165Z" transform="translate(-2.41699)"/>
          <path class="fd3b095c-daea-41f3-bf84-432e9487fbb7" d="M218.96387,740.57227V728.84473H224.792v11.72754h7.25v5.75683h-7.25v14.78369c0,7.03662,1.91895,9.52442,8.24512,9.52442h1.13672v5.686c-.78125.0708-2.06055.14209-2.98535.14209-8.95508,0-12.22461-5.61523-12.22461-15.13916V746.3291h-4.97559v-5.75683Z" transform="translate(-2.41699)"/>
          <path class="fd3b095c-daea-41f3-bf84-432e9487fbb7" d="M253.43262,748.17725c4.47754-6.397,10.66113-8.38672,16.56054-8.38672,7.74707,0,13.85938,5.40136,13.85938,13.71728v16.916h4.833v5.686h-15.707V770.7793l4.9746-.35547V754.43164c0-5.61475-4.69042-9.02637-9.7373-9.02637-5.61426,0-11.51367,2.84278-14.7832,10.16358v14.855l4.97558.35547v5.33056H242.62891v-5.686h4.97558V734.60156h-4.97558v-5.75683h10.80371Z" transform="translate(-2.41699)"/>
          <path class="fd3b095c-daea-41f3-bf84-432e9487fbb7" d="M333.668,770.42383h6.042v5.686H322.22461v-5.686h5.68652V734.60156h-7.81836v-5.75683H333.668Z" transform="translate(-2.41699)"/>
          <path class="fd3b095c-daea-41f3-bf84-432e9487fbb7" d="M351.292,752.65479c0-15.63624,9.95117-25.58692,25.01856-25.58692,15.13965,0,25.30371,10.09277,25.30371,25.08936,0,15.63672-10.02246,25.5874-25.08985,25.5874C361.38477,777.74463,351.292,767.65186,351.292,752.65479Zm25.01856-19.97217c-11.51367,0-18.97657,7.46289-18.97657,19.47461s7.53418,19.97265,19.19043,19.97265c11.51368,0,19.04786-7.39209,19.04786-19.47509C395.57227,740.64307,387.96777,732.68262,376.31055,732.68262Z" transform="translate(-2.41699)"/>
          <path class="fd3b095c-daea-41f3-bf84-432e9487fbb7" d="M414.96875,752.65479c0-15.63624,9.95117-25.58692,25.01855-25.58692,15.13965,0,25.30372,10.09277,25.30372,25.08936,0,15.63672-10.02247,25.5874-25.08985,25.5874C425.06152,777.74463,414.96875,767.65186,414.96875,752.65479Zm25.01855-19.97217c-11.51367,0-18.97656,7.46289-18.97656,19.47461s7.53418,19.97265,19.19043,19.97265c11.51367,0,19.04785-7.39209,19.04785-19.47509C459.249,740.64307,451.64453,732.68262,439.9873,732.68262Z" transform="translate(-2.41699)"/>
          <path class="fd3b095c-daea-41f3-bf84-432e9487fbb7" d="M486.17969,734.60156c8.17383,16.84522,12.58105,25.87158,17.05859,34.96924h.56836c4.47754-9.09766,8.95508-18.124,17.12891-34.96924h-6.3252v-5.75683h18.124v5.75683H527.333c-6.89453,13.85987-13.71778,27.71973-20.61231,41.5083h-6.39648l-20.541-41.5083h-5.40136v-5.75683h18.05273v5.75683Z" transform="translate(-2.41699)"/>
          <path class="fd3b095c-daea-41f3-bf84-432e9487fbb7" d="M588.73535,766.37256l11.30078-32.19727-7.60449-.35547v-4.97509H612.5459v5.47265h-5.68652L591.8623,776.10986h-4.76171q-6.07619-16.95117-12.083-33.97412l-12.01172,33.97412h-4.76172l-14.99707-41.79248h-5.68555v-5.47265h20.043l.21289,4.97509-7.81836.35547c3.83789,10.66162,7.53418,21.60694,11.37207,32.19727l10.73243-31.8418-5.89942-.71094v-4.97509h17.69824c0,1.91894.07129,3.05615.14258,4.97509l-6.11328.71094C581.48535,745.0498,585.11035,755.85352,588.73535,766.37256Z" transform="translate(-2.41699)"/>
          <path class="fd3b095c-daea-41f3-bf84-432e9487fbb7" d="M95.87793,809.56836v5.61475H90.832v36.17773h5.0459v5.47266H78.251v-5.11768l6.75293-.355v-15.9209H51.669v15.9209l6.68164.355v5.11768H40.79492v-5.47266h5.0459V815.18311h-5.0459v-5.61475H58.35059v5.25976l-6.68164.355v14.35742h33.335V815.18311l-6.75293-.355v-5.25976Z" transform="translate(-2.41699)"/>
          <path class="fd3b095c-daea-41f3-bf84-432e9487fbb7" d="M137.167,846.24316l4.47754,2.13233c-2.84277,6.82324-9.80859,9.87939-17.05859,9.87939-11.44239,0-19.04785-7.46289-19.04785-18.835,0-11.72754,7.46289-19.19043,18.835-19.19043,10.59082,0,18.4082,6.89453,18.76367,17.1294l-.71,3.90918c-4.26465,0-25.44531-.14209-31.06055-.14209.78223,7.10742,5.89941,11.86963,13.14941,11.86963C129.27734,852.99561,134.75,851.21875,137.167,846.24316Zm-25.6582-9.52392h26.084c0-7.03662-5.68554-11.15869-13.21972-11.15869C117.33691,825.56055,112.36133,829.896,111.50879,836.71924Z" transform="translate(-2.41699)"/>
          <path class="fd3b095c-daea-41f3-bf84-432e9487fbb7" d="M163.67285,851.14746h4.97559v5.686H152.87012v-5.686h4.97461V827.05273h-4.97461V821.2959h10.80273Zm-7.3916-40.86816a4.14333,4.14333,0,0,1,4.33594-4.478,4.239,4.239,0,0,1,4.40625,4.33545,4.37183,4.37183,0,0,1-8.74219.14258Z" transform="translate(-2.41699)"/>
          <path class="fd3b095c-daea-41f3-bf84-432e9487fbb7" d="M180.51465,864.794c1.56445-.99512,2.98535-2.061,4.54883-3.05616,2.2041,3.6958,7.03711,5.47266,11.65722,5.47266,9.31055,0,11.94043-4.9751,12.36621-16.20508-2.91406,4.33545-7.81738,6.60986-13.5039,6.60986-9.8086,0-17.83985-6.894-17.83985-18.3374,0-12.2959,7.6045-18.90625,17.34278-18.90625,5.96972,0,11.08691,2.4878,13.93066,6.68115.1416-1.91894.28418-3.83789.35547-5.75683h10.51855v5.75683H214.916v27.293c0,12.58057-6.39747,18.19532-18.26661,18.19532C190.11035,872.541,183.85547,870.40869,180.51465,864.794Zm15.99219-12.50928c5.75683,0,10.44824-3.05615,12.22558-8.38672a33.93217,33.93217,0,0,0,.1416-9.311c-1.42187-5.18847-5.82812-8.67138-12.15332-8.67138-7.88965,0-13.00683,5.33056-13.00683,13.71777C183.71387,847.45166,189.18652,852.28467,196.50684,852.28467Z" transform="translate(-2.41699)"/>
          <path class="fd3b095c-daea-41f3-bf84-432e9487fbb7" d="M239.14746,828.90088c4.47754-6.397,10.66113-8.38672,16.56055-8.38672,7.74707,0,13.85937,5.40137,13.85937,13.71729v16.916h4.833v5.686h-15.707v-5.33057l4.97461-.35547V835.15527c0-5.61474-4.69043-9.02636-9.73731-9.02636-5.61425,0-11.51367,2.84277-14.7832,10.16357v14.855l4.97559.35547v5.33057h-15.7793v-5.686h4.97559V815.3252h-4.97559v-5.75684h10.80371Z" transform="translate(-2.41699)"/>
          <path class="fd3b095c-daea-41f3-bf84-432e9487fbb7" d="M286.33594,821.2959V809.56836h5.82812V821.2959h7.25v5.75683h-7.25v14.7837c0,7.03662,1.91895,9.52441,8.24512,9.52441h1.13672v5.686c-.78125.0708-2.06152.14208-2.98535.14208-8.95508,0-12.22461-5.61523-12.22461-15.13916V827.05273h-4.97559V821.2959Z" transform="translate(-2.41699)"/>
          <path class="fd3b095c-daea-41f3-bf84-432e9487fbb7" d="M345.8916,851.14746h6.042v5.686H334.44824v-5.686h5.68653V815.3252h-7.81836v-5.75684H345.8916Z" transform="translate(-2.41699)"/>
          <path class="fd3b095c-daea-41f3-bf84-432e9487fbb7" d="M363.51562,833.37842c0-15.63623,9.95118-25.58692,25.01856-25.58692,15.13965,0,25.30371,10.09278,25.30371,25.08936,0,15.63672-10.02246,25.5874-25.08984,25.5874C373.6084,858.46826,363.51562,848.37549,363.51562,833.37842Zm25.01856-19.97217c-11.51367,0-18.97656,7.46289-18.97656,19.47461s7.53418,19.97266,19.19043,19.97266c11.51367,0,19.04785-7.39209,19.04785-19.4751C407.7959,821.3667,400.19141,813.40625,388.53418,813.40625Z" transform="translate(-2.41699)"/>
          <path class="fd3b095c-daea-41f3-bf84-432e9487fbb7" d="M427.19238,833.37842c0-15.63623,9.95117-25.58692,25.01856-25.58692,15.13965,0,25.30371,10.09278,25.30371,25.08936,0,15.63672-10.02246,25.5874-25.08985,25.5874C437.28516,858.46826,427.19238,848.37549,427.19238,833.37842Zm25.01856-19.97217c-11.51367,0-18.97656,7.46289-18.97656,19.47461s7.53417,19.97266,19.19042,19.97266c11.51368,0,19.04786-7.39209,19.04786-19.4751C471.47266,821.3667,463.86816,813.40625,452.21094,813.40625Z" transform="translate(-2.41699)"/>
          <path class="fd3b095c-daea-41f3-bf84-432e9487fbb7" d="M498.4043,815.3252c8.17382,16.84521,12.58105,25.87158,17.05859,34.96923h.56836c4.47754-9.09765,8.95508-18.124,17.12891-34.96923H526.835v-5.75684h18.124v5.75684h-5.40136c-6.89453,13.85986-13.71778,27.71972-20.61231,41.5083h-6.39648l-20.541-41.5083h-5.40136v-5.75684h18.05273v5.75684Z" transform="translate(-2.41699)"/>
          <path class="fd3b095c-daea-41f3-bf84-432e9487fbb7" d="M608.707,809.56836v5.61475h-5.0459v36.17773h5.0459v5.47266h-17.627v-5.11768l6.75293-.355v-15.9209h-33.335v15.9209l6.68164.355v5.11768H553.624v-5.47266h5.0459V815.18311H553.624v-5.61475h17.55567v5.25976l-6.68164.355v14.35742h33.335V815.18311l-6.75293-.355v-5.25976Z" transform="translate(-2.41699)"/>
        </g>
        <g>
          <path class="fd3b095c-daea-41f3-bf84-432e9487fbb7" d="M69.36719,472.40967h5.11816c0,5.61523.07129,9.38232.07129,14.92578H69.083c-.07031-1.77686-.28418-3.62451-.35547-5.82813-1.13672-.78173-7.17774-4.33544-16.915-4.33544-7.17871,0-16.27637,2.20312-16.27637,9.09765,0,12.438,41.08106-.42627,41.08106,19.33252,0,12.72266-13.21973,16.56055-23.59668,16.56055a32.664,32.664,0,0,1-18.835-6.397v4.62012H28.35742V503.541h5.25977l.63965,5.97021c3.05566,2.27441,9.8789,6.60986,18.19531,6.60986,6.96484,0,17.83984-1.99023,17.83984-10.09277,0-14.144-41.50879.35547-41.50879-19.26123,0-11.79834,14.21582-15.06787,23.31348-15.06787,8.38672,0,14.002,2.4873,16.77344,4.19336C69.0127,474.75537,69.1543,473.61816,69.36719,472.40967Z" transform="translate(-2.41699)"/>
          <path class="fd3b095c-daea-41f3-bf84-432e9487fbb7" d="M91.46582,484.84814V473.12061H97.294v11.72753h7.25V490.605h-7.25v14.78369c0,7.03662,1.91894,9.52442,8.24511,9.52442h1.13672v5.686c-.78125.0708-2.06055.14209-2.98535.14209-8.95508,0-12.22461-5.61523-12.22461-15.13916V490.605H86.49023v-5.75684Z" transform="translate(-2.41699)"/>
          <path class="fd3b095c-daea-41f3-bf84-432e9487fbb7" d="M127.07129,514.69971h4.97559v5.686H116.26855v-5.686h4.97461V490.605h-4.97461v-5.75684h10.80274Zm-7.3916-40.86817a4.14332,4.14332,0,0,1,4.33593-4.478,4.239,4.239,0,0,1,4.40626,4.33544,4.37183,4.37183,0,0,1-8.74219.14258Z" transform="translate(-2.41699)"/>
          <path class="fd3b095c-daea-41f3-bf84-432e9487fbb7" d="M177.38965,511.78564c-2.98438,6.46778-9.38184,10.02149-16.98633,10.02149-11.44336,0-19.4043-7.46289-19.4043-18.835,0-10.94531,7.17871-19.19043,18.33789-19.19043,7.10743,0,11.2295,3.34082,12.72266,5.40185l.85254-4.33545h4.12207v15.56543H171.917a24.0632,24.0632,0,0,0-.78125-5.18847,12.72229,12.72229,0,0,0-11.30176-5.89942c-7.32031,0-12.86425,4.9043-12.86425,13.291,0,8.17383,4.97558,13.57568,13.3623,13.57568,5.33008,0,10.09277-2.55859,12.083-6.61035C174.0498,510.293,175.75488,511.00391,177.38965,511.78564Z" transform="translate(-2.41699)"/>
          <path class="fd3b095c-daea-41f3-bf84-432e9487fbb7" d="M196.93262,506.1709l20.46972-16.27637H209.584v-5.04639h19.11914V490.605h-4.76171l-10.66114,8.458c5.0459,10.59033,10.44825,16.063,14.499,16.063a9.394,9.394,0,0,0,2.77246-.42627l.21289,5.686a19.56172,19.56172,0,0,1-4.19336.56836c-5.89941,0-9.5957-4.61963-15.13965-14.42822l-2.4873-4.40674-12.01172,9.80859v2.772l4.62011.28418v5.40185H186.12891v-5.686h4.97558V478.87793h-4.97558v-5.75732h10.80371Z" transform="translate(-2.41699)"/>
          <path class="fd3b095c-daea-41f3-bf84-432e9487fbb7" d="M270.56055,490.605c-2.416-.14209-4.833-.28418-7.25-.355v-5.40186H282.0752V490.605h-5.54395L256.3457,529.62549h5.89942v5.75732h-16.916v-5.75732h4.9043l5.11719-9.73731L239.99805,490.605h-5.40137v-5.75684h18.76367V490.25c-2.416.0708-4.9043.21289-7.32031.355l12.2959,23.95264h.07129Z" transform="translate(-2.41699)"/>
          <path class="fd3b095c-daea-41f3-bf84-432e9487fbb7" d="M354.42188,472.40967H359.54c0,5.61523.07129,9.38232.07129,14.92578H354.1377c-.07032-1.77686-.28418-3.62451-.35547-5.82813-1.13672-.78173-7.17774-4.33544-16.915-4.33544-7.17871,0-16.27637,2.20312-16.27637,9.09765,0,12.438,41.08106-.42627,41.08106,19.33252,0,12.72266-13.21973,16.56055-23.59668,16.56055a32.664,32.664,0,0,1-18.835-6.397v4.62012h-5.82812V503.541h5.25977l.63964,5.97021c3.05567,2.27441,9.87891,6.60986,18.19532,6.60986,6.96484,0,17.83984-1.99023,17.83984-10.09277,0-14.144-41.50879.35547-41.50879-19.26123,0-11.79834,14.21582-15.06787,23.31348-15.06787,8.38672,0,14.002,2.4873,16.77343,4.19336C354.06738,474.75537,354.209,473.61816,354.42188,472.40967Z" transform="translate(-2.41699)"/>
          <path class="fd3b095c-daea-41f3-bf84-432e9487fbb7" d="M403.10352,509.79541l4.47753,2.13232c-2.84277,6.82325-9.80859,9.8794-17.05761,9.8794-11.44336,0-19.04883-7.46289-19.04883-18.835,0-11.72754,7.46289-19.19043,18.835-19.19043,10.59082,0,18.40918,6.89453,18.76367,17.12939l-.71,3.90918c-4.26465,0-25.44531-.14209-31.06055-.14209.78223,7.10742,5.89942,11.86963,13.14942,11.86963C395.21387,516.54785,400.68652,514.771,403.10352,509.79541Zm-25.65821-9.52393h26.084c0-7.03662-5.68555-11.15918-13.21973-11.15918C383.27344,489.1123,378.29785,493.44824,377.44531,500.27148Z" transform="translate(-2.41699)"/>
          <path class="fd3b095c-daea-41f3-bf84-432e9487fbb7" d="M454.62793,511.78564c-2.98438,6.46778-9.38184,10.02149-16.98633,10.02149-11.44336,0-19.4043-7.46289-19.4043-18.835,0-10.94531,7.17872-19.19043,18.3379-19.19043,7.10742,0,11.22949,3.34082,12.72265,5.40185l.85254-4.33545h4.12207v15.56543h-5.11719a24.0632,24.0632,0,0,0-.78125-5.18847,12.72229,12.72229,0,0,0-11.30175-5.89942c-7.32032,0-12.86426,4.9043-12.86426,13.291,0,8.17383,4.97558,13.57568,13.3623,13.57568,5.33008,0,10.09278-2.55859,12.083-6.61035C451.28809,510.293,452.99316,511.00391,454.62793,511.78564Z" transform="translate(-2.41699)"/>
          <path class="fd3b095c-daea-41f3-bf84-432e9487fbb7" d="M468.41309,484.84814V473.12061h5.82812v11.72753h7.25V490.605h-7.25v14.78369c0,7.03662,1.91895,9.52442,8.24512,9.52442h1.13672v5.686c-.78125.0708-2.06055.14209-2.98535.14209-8.95508,0-12.22461-5.61523-12.22461-15.13916V490.605H463.4375v-5.75684Z" transform="translate(-2.41699)"/>
          <path class="fd3b095c-daea-41f3-bf84-432e9487fbb7" d="M504.01855,514.69971h4.97559v5.686H493.21582v-5.686h4.97461V490.605h-4.97461v-5.75684h10.80273Zm-7.3916-40.86817a4.14333,4.14333,0,0,1,4.33594-4.478,4.239,4.239,0,0,1,4.40625,4.33544,4.37183,4.37183,0,0,1-8.74219.14258Z" transform="translate(-2.41699)"/>
          <path class="fd3b095c-daea-41f3-bf84-432e9487fbb7" d="M518.01758,502.97217c0-11.72754,7.46289-19.19043,18.76367-19.19043,11.44336,0,19.12012,7.53418,19.12012,18.835,0,11.79883-7.53418,19.19043-18.90625,19.19043S518.01758,514.34424,518.01758,502.97217Zm18.76367-13.5044c-7.74707,0-12.86426,5.04639-12.86426,13.14893,0,8.17383,5.18848,13.57568,13.07813,13.57568,7.74707,0,12.93554-5.04638,12.93554-13.22021C549.93066,494.86963,544.74219,489.46777,536.78125,489.46777Z" transform="translate(-2.41699)"/>
          <path class="fd3b095c-daea-41f3-bf84-432e9487fbb7" d="M576.082,492.45312c4.47852-6.46777,10.66211-8.38671,16.56055-8.38671,7.748,0,13.86035,5.40136,13.86035,13.71728v16.916h4.833v5.686h-15.708v-5.33056l4.97559-.35547V498.56543c0-5.61475-4.62012-8.95557-9.666-8.95557-5.54395,0-11.58594,2.84326-14.85547,10.23487v14.855l4.97559.35547v5.33056H565.2793v-5.686h4.97461V490.605H565.2793v-5.75684H576.082Z" transform="translate(-2.41699)"/>
        </g>
        <g>
          <path class="a11d9638-80e8-4899-8ed1-dabf046197e3" d="M2563.76074,611.64844l11.30078-32.19727-7.60449-.35547v-4.97509h20.11426v5.47265h-5.68652l-14.99707,41.79248H2562.126q-6.07617-16.95117-12.083-33.97412l-12.01172,33.97412h-4.76172l-14.99707-41.79248h-5.68555v-5.47265h20.043l.21289,4.97509-7.81836.35547c3.83789,10.66113,7.53418,21.60694,11.37207,32.19727l10.73243-31.8418-5.89942-.71094v-4.97509h17.69824c0,1.91894.07129,3.05615.14258,4.97509l-6.11328.71094C2556.51074,590.32568,2560.13574,601.12939,2563.76074,611.64844Z" transform="translate(-2.41699)"/>
          <path class="a11d9638-80e8-4899-8ed1-dabf046197e3" d="M2605.40332,615.69971h4.97559v5.686h-15.77832v-5.686h4.97461V591.605h-4.97461v-5.75684h10.80273Zm-7.3916-40.86817a4.14332,4.14332,0,0,1,4.33594-4.478,4.239,4.239,0,0,1,4.40625,4.33544,4.37183,4.37183,0,0,1-8.74219.14258Z" transform="translate(-2.41699)"/>
          <path class="a11d9638-80e8-4899-8ed1-dabf046197e3" d="M2636.74609,584.92383c5.96973,0,11.15821,2.48779,14.002,6.68115v-11.727c-1.63477-.21338-3.34082-.42676-4.97559-.71094v-5.04638h10.80371v41.5791h4.97461v5.686h-10.51855c0-1.70605-.14258-3.48291-.28418-5.47265-2.91407,4.40673-7.67676,6.68115-13.36231,6.68115-9.87988,0-17.98242-7.10791-17.98242-18.76416C2619.40332,591.53418,2627.08008,584.92383,2636.74609,584.92383Zm1.63477,32.26855c6.32519,0,10.73242-3.55371,12.22461-8.95556a48.62171,48.62171,0,0,0,0-9.09766c-1.42188-5.18848-5.89942-8.67139-12.22461-8.67139-7.88965,0-13.00684,5.33106-13.00684,13.71778C2625.374,612.07471,2630.5625,617.19238,2638.38086,617.19238Z" transform="translate(-2.41699)"/>
          <path class="a11d9638-80e8-4899-8ed1-dabf046197e3" d="M2674.126,585.84814V574.12061h5.82812v11.72753h7.25V591.605h-7.25v14.78369c0,7.03662,1.919,9.52442,8.24512,9.52442h1.13672v5.686c-.78125.0708-2.06055.14209-2.98535.14209-8.95508,0-12.22461-5.61523-12.22461-15.13916V591.605h-4.97559v-5.75684Z" transform="translate(-2.41699)"/>
          <path class="a11d9638-80e8-4899-8ed1-dabf046197e3" d="M2708.59473,593.45312c4.47754-6.397,10.66113-8.38671,16.56054-8.38671,7.74707,0,13.85938,5.40136,13.85938,13.71728v16.916h4.833v5.686h-15.707v-5.33056l4.97461-.35547V599.70752c0-5.61475-4.69043-9.02637-9.7373-9.02637-5.61426,0-11.51367,2.84326-14.7832,10.16358v14.855l4.97558.35547v5.33056H2697.791v-5.686h4.97558V579.87793H2697.791v-5.75732h10.80371Z" transform="translate(-2.41699)"/>
          <path class="a11d9638-80e8-4899-8ed1-dabf046197e3" d="M2825.86035,600.84473v5.54394H2814.915v9.311h6.041v5.686h-18.97656v-5.33056c2.34571-.14209,4.76172-.28418,7.10742-.35547v-9.311h-33.47656l-2.3457-4.61963c12.1543-10.23486,24.3789-20.61181,36.60449-30.84668,1.70508.49756,3.33984,1.13721,5.0459,1.63477v28.2876Zm-16.77344,0V578.81152l-25.94238,22.03321Z" transform="translate(-2.41699)"/>
          <path class="a11d9638-80e8-4899-8ed1-dabf046197e3" d="M2836.51562,597.93066c0-15.63623,9.95118-25.58691,25.01856-25.58691,15.13965,0,25.30371,10.09277,25.30371,25.08936,0,15.63671-10.02246,25.5874-25.08984,25.5874C2846.6084,623.02051,2836.51562,612.92773,2836.51562,597.93066Zm25.01856-19.97216c-11.51367,0-18.97656,7.46289-18.97656,19.47461,0,12.0122,7.53418,19.97216,19.19043,19.97216,11.51367,0,19.04785-7.3916,19.04785-19.47461C2880.7959,585.919,2873.19141,577.9585,2861.53418,577.9585Z" transform="translate(-2.41699)"/>
          <path class="a11d9638-80e8-4899-8ed1-dabf046197e3" d="M2900.19238,597.93066c0-15.63623,9.95117-25.58691,25.01856-25.58691,15.13965,0,25.30371,10.09277,25.30371,25.08936,0,15.63671-10.02246,25.5874-25.08985,25.5874C2910.28516,623.02051,2900.19238,612.92773,2900.19238,597.93066Zm25.01856-19.97216c-11.51367,0-18.97656,7.46289-18.97656,19.47461,0,12.0122,7.53417,19.97216,19.19042,19.97216,11.51368,0,19.04786-7.3916,19.04786-19.47461C2944.47266,585.919,2936.86816,577.9585,2925.21094,577.9585Z" transform="translate(-2.41699)"/>
          <path class="a11d9638-80e8-4899-8ed1-dabf046197e3" d="M2971.4043,579.87793c8.17382,16.84473,12.581,25.87109,17.05859,34.96875h.56836c4.47754-9.09766,8.95508-18.124,17.12891-34.96875h-6.3252v-5.75732h18.124v5.75732h-5.40136c-6.89453,13.85937-13.71778,27.71924-20.61231,41.50781h-6.39648l-20.541-41.50781h-5.40136v-5.75732h18.05273v5.75732Z" transform="translate(-2.41699)"/>
          <path class="a11d9638-80e8-4899-8ed1-dabf046197e3" d="M3081.707,574.12061v5.61474h-5.0459v36.17774h5.0459v5.47265h-17.62695v-5.11719l6.75293-.35546v-15.9209h-33.335v15.9209l6.68164.35546v5.11719H3026.624v-5.47265h5.0459V579.73535h-5.0459v-5.61474h17.55567v5.25976l-6.68164.355v14.35742h33.335V579.73535l-6.75293-.355v-5.25976Z" transform="translate(-2.41699)"/>
          <path class="a11d9638-80e8-4899-8ed1-dabf046197e3" d="M2382.5332,656.13379h5.11817c0,5.61523.07129,9.38232.07129,14.92578H2382.249c-.07031-1.77686-.28418-3.62451-.35547-5.82812-1.13671-.78174-7.17773-4.33545-16.915-4.33545-7.17872,0-16.27637,2.20312-16.27637,9.09765,0,12.438,41.081-.42627,41.081,19.33252,0,12.72266-13.21972,16.56055-23.59668,16.56055a32.66407,32.66407,0,0,1-18.835-6.397v4.62011h-5.82812V687.26514h5.25976l.63965,5.97021c3.05567,2.27442,9.87891,6.60986,18.19531,6.60986,6.96485,0,17.83985-1.98974,17.83985-10.09277,0-14.144-41.50879.35547-41.50879-19.26123,0-11.79834,14.21582-15.06787,23.31348-15.06787,8.38671,0,14.00195,2.4873,16.77343,4.19336C2382.17871,658.47949,2382.32031,657.34229,2382.5332,656.13379Z" transform="translate(-2.41699)"/>
          <path class="a11d9638-80e8-4899-8ed1-dabf046197e3" d="M2435.90527,695.50977c-2.98437,6.46777-9.38183,10.02148-16.98632,10.02148-11.44336,0-19.4043-7.46289-19.4043-18.835,0-10.94531,7.17871-19.19043,18.33789-19.19043,7.10742,0,11.22949,3.34082,12.72266,5.40185l.85253-4.33544h4.12207V684.1377h-5.11718a24.06319,24.06319,0,0,0-.78125-5.18848,12.72232,12.72232,0,0,0-11.30176-5.89942c-7.32031,0-12.86426,4.9043-12.86426,13.291,0,8.17383,4.97559,13.57568,13.36231,13.57568,5.33007,0,10.09277-2.55859,12.083-6.60986C2432.56543,694.01709,2434.27051,694.728,2435.90527,695.50977Z" transform="translate(-2.41699)"/>
          <path class="a11d9638-80e8-4899-8ed1-dabf046197e3" d="M2474.99219,673.68945c-5.82813,0-17.627,3.625-17.627,12.2251v12.50928h4.97559v5.686H2446.5625v-5.686h4.97461V674.3291h-4.97461v-5.75683h10.09277c.14161,2.84277.28418,5.686.3545,8.5288a23.194,23.194,0,0,1,17.98242-9.38183Z" transform="translate(-2.41699)"/>
          <path class="a11d9638-80e8-4899-8ed1-dabf046197e3" d="M2481.10059,686.69629c0-11.72754,7.46289-19.19043,18.76367-19.19043,11.44336,0,19.12012,7.53418,19.12012,18.835,0,11.79883-7.53418,19.19043-18.90626,19.19043S2481.10059,698.06836,2481.10059,686.69629Zm18.76367-13.5044c-7.74707,0-12.86426,5.04639-12.86426,13.14893,0,8.17383,5.18848,13.57568,13.07812,13.57568,7.74708,0,12.93555-5.04638,12.93555-13.22021C2513.01367,678.59375,2507.8252,673.19189,2499.86426,673.19189Z" transform="translate(-2.41699)"/>
          <path class="a11d9638-80e8-4899-8ed1-dabf046197e3" d="M2538.0293,698.42383h4.97558v5.686h-15.77929v-5.686h4.97558V662.60156h-4.97558v-5.75683h10.80371Z" transform="translate(-2.41699)"/>
          <path class="a11d9638-80e8-4899-8ed1-dabf046197e3" d="M2562.90234,698.42383h4.97559v5.686h-15.7793v-5.686h4.97559V662.60156h-4.97559v-5.75683h10.80371Z" transform="translate(-2.41699)"/>
          <path class="a11d9638-80e8-4899-8ed1-dabf046197e3" d="M2594.24316,667.648c5.96973,0,10.94532,2.417,13.93067,6.68115.1416-1.91894.28418-3.83789.35547-5.75683h10.51855v5.75683h-4.97461v24.09473h4.97461v5.686H2608.5293l-.28418-5.40185c-2.91407,4.33594-7.74707,6.61035-13.36231,6.61035-9.87988,0-17.98242-7.10791-17.98242-18.76416C2576.90039,674.2583,2584.57617,667.648,2594.24316,667.648Zm1.63477,32.26855c6.32519,0,10.73242-3.55371,12.22461-8.95556a48.6217,48.6217,0,0,0,0-9.09766c-1.42188-5.18848-5.89942-8.67139-12.22461-8.67139-7.88965,0-13.00684,5.33057-13.00684,13.71778C2582.87109,694.79883,2588.05957,699.9165,2595.87793,699.9165Z" transform="translate(-2.41699)"/>
          <path class="a11d9638-80e8-4899-8ed1-dabf046197e3" d="M2655.3623,705.31836c-5.68652,0-10.44824-2.27441-13.3623-6.53906l-.35547,5.33056h-10.44824v-5.686h4.97559V662.60156h-4.97559v-5.75683H2642V674.187c3.05664-4.19336,7.96094-6.53906,13.78906-6.53906,9.73731,0,17.48438,6.61035,17.48438,18.69287C2673.27344,698.28174,2665.1709,705.31836,2655.3623,705.31836Zm-1.208-32.12647c-6.25489,0-10.44825,3.41163-11.94141,8.6001a51.67384,51.67384,0,0,0,0,9.38233c1.56445,5.18847,5.82813,8.74218,12.1543,8.74218,7.74707,0,12.93554-5.04638,12.93554-13.22021C2667.30273,678.59375,2662.11426,673.19189,2654.1543,673.19189Z" transform="translate(-2.41699)"/>
          <path class="a11d9638-80e8-4899-8ed1-dabf046197e3" d="M2692.38867,698.42383h4.97559v5.686H2681.585v-5.686h4.97559V662.60156H2681.585v-5.75683h10.80371Z" transform="translate(-2.41699)"/>
          <path class="a11d9638-80e8-4899-8ed1-dabf046197e3" d="M2738.0166,693.51953l4.47754,2.13233c-2.84277,6.82324-9.80859,9.87939-17.05859,9.87939-11.44239,0-19.04785-7.46289-19.04785-18.835,0-11.72754,7.46289-19.19043,18.835-19.19043,10.59082,0,18.4082,6.89453,18.76367,17.12939l-.71,3.90918c-4.26465,0-25.44532-.14209-31.06055-.14209.78223,7.10743,5.89941,11.86963,13.14941,11.86963C2730.127,700.272,2735.59961,698.49512,2738.0166,693.51953Zm-25.6582-9.52392h26.084c0-7.03663-5.68554-11.1587-13.21972-11.1587C2718.18652,672.83691,2713.21094,677.17236,2712.3584,683.99561Z" transform="translate(-2.41699)"/>
          <path class="a11d9638-80e8-4899-8ed1-dabf046197e3" d="M2819.88867,660.043c.21289-1.06592.35547-2.13233.49707-3.19824h5.18848v16.63183h-5.68555v-6.68115c-1.91894-2.27441-7.67578-5.61523-16.84472-5.61523-11.58594,0-19.97266,6.75244-19.97266,18.835,0,11.86963,8.60059,19.688,20.39844,19.688,8.458,0,16.77441-4.33544,18.125-13.71728,1.70507.71045,3.26953,1.3501,4.97461,1.98975-1.4209,13.14892-13.21973,17.69775-23.80957,17.69775-15.13965,0-25.94336-10.87451-25.94336-25.6582,0-16.063,11.51464-24.5918,26.36914-24.5918C2811.28809,655.42334,2816.76172,657.83984,2819.88867,660.043Z" transform="translate(-2.41699)"/>
          <path class="a11d9638-80e8-4899-8ed1-dabf046197e3" d="M2836.87012,686.69629c0-11.72754,7.46289-19.19043,18.76367-19.19043,11.44336,0,19.12012,7.53418,19.12012,18.835,0,11.79883-7.53418,19.19043-18.90625,19.19043S2836.87012,698.06836,2836.87012,686.69629Zm18.76367-13.5044c-7.74707,0-12.86426,5.04639-12.86426,13.14893,0,8.17383,5.18848,13.57568,13.07813,13.57568,7.74707,0,12.93554-5.04638,12.93554-13.22021C2868.7832,678.59375,2863.59473,673.19189,2855.63379,673.19189Z" transform="translate(-2.41699)"/>
          <path class="a11d9638-80e8-4899-8ed1-dabf046197e3" d="M2894.93457,676.17725c4.47852-6.46778,10.66211-8.38672,16.56055-8.38672,7.748,0,13.86035,5.40136,13.86035,13.71728v16.916h4.833v5.686h-15.708V698.7793l4.97558-.35547V682.28955c0-5.61475-4.62011-8.95557-9.666-8.95557-5.54395,0-11.58594,2.84327-14.85547,10.23487v14.855l4.97559.35547v5.33056h-15.77832v-5.686h4.97461V674.3291h-4.97461v-5.75683h10.80273Z" transform="translate(-2.41699)"/>
          <path class="a11d9638-80e8-4899-8ed1-dabf046197e3" d="M2942.26562,668.57227V656.84473h5.82813v11.72754h7.25v5.75683h-7.25v14.78369c0,7.03662,1.919,9.52442,8.24512,9.52442h1.13672v5.686c-.78125.0708-2.06153.14209-2.98536.14209-8.95507,0-12.22461-5.61523-12.22461-15.13916V674.3291H2937.29v-5.75683Z" transform="translate(-2.41699)"/>
          <path class="a11d9638-80e8-4899-8ed1-dabf046197e3" d="M2996.77832,693.51953l4.47754,2.13233c-2.84277,6.82324-9.80859,9.87939-17.05859,9.87939-11.44239,0-19.04786-7.46289-19.04786-18.835,0-11.72754,7.46289-19.19043,18.835-19.19043,10.59082,0,18.4082,6.89453,18.76367,17.12939l-.71,3.90918c-4.26465,0-25.44532-.14209-31.06055-.14209.78223,7.10743,5.89941,11.86963,13.14941,11.86963C2988.88867,700.272,2994.36133,698.49512,2996.77832,693.51953Zm-25.6582-9.52392h26.084c0-7.03663-5.68555-11.1587-13.21972-11.1587C2976.94824,672.83691,2971.97266,677.17236,2971.12012,683.99561Z" transform="translate(-2.41699)"/>
          <path class="a11d9638-80e8-4899-8ed1-dabf046197e3" d="M3022.57422,676.17725c4.47851-6.46778,10.66211-8.38672,16.56055-8.38672,7.748,0,13.86035,5.40136,13.86035,13.71728v16.916h4.833v5.686h-15.708V698.7793l4.97558-.35547V682.28955c0-5.61475-4.62011-8.95557-9.666-8.95557-5.54395,0-11.58594,2.84327-14.85547,10.23487v14.855l4.97558.35547v5.33056h-15.77832v-5.686h4.97461V674.3291h-4.97461v-5.75683h10.80274Z" transform="translate(-2.41699)"/>
          <path class="a11d9638-80e8-4899-8ed1-dabf046197e3" d="M3069.9043,668.57227V656.84473h5.82812v11.72754h7.25v5.75683h-7.25v14.78369c0,7.03662,1.919,9.52442,8.24512,9.52442h1.13672v5.686c-.78125.0708-2.06153.14209-2.98535.14209-8.95508,0-12.22461-5.61523-12.22461-15.13916V674.3291h-4.97559v-5.75683Z" transform="translate(-2.41699)"/>
        </g>
        <rect class="a90c5267-ec1c-48f9-99a1-f852c0e98a1c" x="1728.45996" y="503.4433" width="160" height="253.94495" rx="26.20525"/>
        <rect class="a90c5267-ec1c-48f9-99a1-f852c0e98a1c" x="1268.45996" y="503.55505" width="160" height="253.94495" rx="26.20525"/>
        <rect class="a90c5267-ec1c-48f9-99a1-f852c0e98a1c" x="1498.45996" y="503.4433" width="160" height="253.94495" rx="26.20525"/>
        <rect class="a90c5267-ec1c-48f9-99a1-f852c0e98a1c" x="1038.45996" y="503.55505" width="160" height="253.94495" rx="26.20525"/>
        <rect class="a90c5267-ec1c-48f9-99a1-f852c0e98a1c" x="1958.45996" y="503.4433" width="160" height="253.94495" rx="26.20525"/>
        <rect class="a90c5267-ec1c-48f9-99a1-f852c0e98a1c" x="2188.45996" y="503.55505" width="160" height="253.94495" rx="26.20525"/>
        <rect class="a90c5267-ec1c-48f9-99a1-f852c0e98a1c" x="2648.45996" y="503.55505" width="160" height="253.94495" rx="26.20525"/>
        <rect class="a90c5267-ec1c-48f9-99a1-f852c0e98a1c" x="2878.45996" y="503.4433" width="160" height="253.94495" rx="26.20525"/>
        <rect class="a90c5267-ec1c-48f9-99a1-f852c0e98a1c" x="2418.45996" y="503.55505" width="160" height="253.94495" rx="26.20525"/>
        <rect class="a1dd23b1-afaf-49a0-a575-ad102a80448e" x="724.45996" y="312.5" width="790" height="634"/>
        <rect class="a90c5267-ec1c-48f9-99a1-f852c0e98a1c" x="809.45996" y="503.55505" width="160" height="253.94495" rx="26.20525"/>
      </g>
    </g>
  </g>
</svg>
